<mxfile host="app.diagrams.net" modified="2023-10-29T14:57:26.751Z" agent="Mozilla/5.0 (Windows NT 10.0; Win64; x64; rv:109.0) Gecko/20100101 Firefox/119.0" etag="cVvvsYZgMazLQzxIJzh8" version="22.0.8" type="device">
  <diagram name="Stránka-1" id="SZflLTvGPq7JX6_4BzlD">
    <mxGraphModel dx="1866" dy="514" grid="1" gridSize="10" guides="1" tooltips="1" connect="1" arrows="1" fold="1" page="1" pageScale="1" pageWidth="827" pageHeight="1169" math="0" shadow="0">
      <root>
        <mxCell id="0" />
        <mxCell id="1" parent="0" />
        <mxCell id="WG8-0oqEW0Bs1PvZ1Iz8-1" value="" style="rounded=0;whiteSpace=wrap;html=1;fillColor=#dae8fc;strokeColor=#6c8ebf;" vertex="1" parent="1">
          <mxGeometry x="90" y="170" width="330" height="350" as="geometry" />
        </mxCell>
        <mxCell id="WG8-0oqEW0Bs1PvZ1Iz8-13" style="edgeStyle=orthogonalEdgeStyle;rounded=0;orthogonalLoop=1;jettySize=auto;html=1;" edge="1" parent="1" source="q4pzPnrohXeNWm_JFjDt-1" target="WG8-0oqEW0Bs1PvZ1Iz8-11">
          <mxGeometry relative="1" as="geometry" />
        </mxCell>
        <mxCell id="q4pzPnrohXeNWm_JFjDt-1" value="Uživatel" style="shape=umlActor;verticalLabelPosition=bottom;verticalAlign=top;html=1;outlineConnect=0;" parent="1" vertex="1">
          <mxGeometry x="10" y="280" width="30" height="60" as="geometry" />
        </mxCell>
        <mxCell id="q4pzPnrohXeNWm_JFjDt-4" value="" style="endArrow=none;html=1;rounded=0;" parent="1" edge="1">
          <mxGeometry width="50" height="50" relative="1" as="geometry">
            <mxPoint x="-1.027668783940726" y="52.62845859799256" as="sourcePoint" />
            <mxPoint x="-1.027668783940726" y="67.37154140200744" as="targetPoint" />
          </mxGeometry>
        </mxCell>
        <mxCell id="WG8-0oqEW0Bs1PvZ1Iz8-11" value="Vyhledávač" style="ellipse;whiteSpace=wrap;html=1;" vertex="1" parent="1">
          <mxGeometry x="205" y="275" width="90" height="70" as="geometry" />
        </mxCell>
        <mxCell id="WG8-0oqEW0Bs1PvZ1Iz8-21" value="&lt;div style=&quot;font-size: 15px;&quot;&gt;Aplikace&lt;/div&gt;" style="text;html=1;strokeColor=none;fillColor=none;spacing=5;spacingTop=-20;whiteSpace=wrap;overflow=hidden;rounded=0;fontSize=15;" vertex="1" parent="1">
          <mxGeometry x="220" y="190" width="70" height="10" as="geometry" />
        </mxCell>
        <mxCell id="WG8-0oqEW0Bs1PvZ1Iz8-26" value="&lt;div&gt;Zobrazení místa&lt;/div&gt;&lt;div&gt;na mapě&lt;br&gt;&lt;/div&gt;" style="ellipse;whiteSpace=wrap;html=1;" vertex="1" parent="1">
          <mxGeometry x="200" y="390" width="100" height="70" as="geometry" />
        </mxCell>
        <mxCell id="WG8-0oqEW0Bs1PvZ1Iz8-27" value="GPS" style="shape=umlActor;verticalLabelPosition=bottom;verticalAlign=top;html=1;outlineConnect=0;" vertex="1" parent="1">
          <mxGeometry x="440" y="285" width="30" height="60" as="geometry" />
        </mxCell>
        <mxCell id="WG8-0oqEW0Bs1PvZ1Iz8-30" style="edgeStyle=orthogonalEdgeStyle;rounded=0;orthogonalLoop=1;jettySize=auto;html=1;entryX=0.1;entryY=0.467;entryDx=0;entryDy=0;entryPerimeter=0;" edge="1" parent="1" source="WG8-0oqEW0Bs1PvZ1Iz8-11" target="WG8-0oqEW0Bs1PvZ1Iz8-27">
          <mxGeometry relative="1" as="geometry">
            <Array as="points">
              <mxPoint x="443" y="310" />
            </Array>
          </mxGeometry>
        </mxCell>
        <mxCell id="WG8-0oqEW0Bs1PvZ1Iz8-31" value="" style="endArrow=classic;html=1;rounded=0;entryX=1;entryY=0.5;entryDx=0;entryDy=0;" edge="1" parent="1" source="WG8-0oqEW0Bs1PvZ1Iz8-27" target="WG8-0oqEW0Bs1PvZ1Iz8-26">
          <mxGeometry width="50" height="50" relative="1" as="geometry">
            <mxPoint x="230" y="360" as="sourcePoint" />
            <mxPoint x="280" y="310" as="targetPoint" />
          </mxGeometry>
        </mxCell>
        <mxCell id="WG8-0oqEW0Bs1PvZ1Iz8-32" value="" style="endArrow=classic;html=1;rounded=0;" edge="1" parent="1" source="WG8-0oqEW0Bs1PvZ1Iz8-26" target="q4pzPnrohXeNWm_JFjDt-1">
          <mxGeometry width="50" height="50" relative="1" as="geometry">
            <mxPoint x="230" y="360" as="sourcePoint" />
            <mxPoint x="280" y="310" as="targetPoint" />
          </mxGeometry>
        </mxCell>
      </root>
    </mxGraphModel>
  </diagram>
</mxfile>
